:version 1.10
:name ASF
:units
  mass 1
  length 1
  angle deg
:documentation
  ASF file generated by Kaydara
:root
  axis xyz
  order  tx ty tz rx ry rz
  position 0 0 0
  orientation 0 0 0
:bonedata
  begin
    id 1
    name RightUpLegDummy
    direction -1 2.30186e-007 8.31532e-007
    length 4.46685
    axis 0 0 0 xyz
  end
  begin
    id 2
    name RightUpLeg
    direction -2.30187e-007 -1 1.24343e-010
    length 16.4045
    axis -3.49089 -0.000906625 0.000286804 xyz
    dof rx ry rz
  end
  begin
    id 3
    name RightLeg
    direction -2.30181e-007 -1 -4.17157e-009
    length 17.5097
    axis 3.68512 0.0193738 -0.131023 xyz
    dof rx ry rz
  end
  begin
    id 4
    name RightFoot
    direction 8.31421e-007 -4.51202e-011 1
    length 6.49508
    axis 4.81691e-005 -0.120479 -0.188788 xyz
    dof rx ry rz
  end
  begin
    id 5
    name RightToes
    direction 0.00124746 -0.014064 0.9999
    length 3.85082
    axis 0.000481921 0.542163 -0.142578 xyz
    dof rx ry rz
  end
  begin
    id 6
    name SpineDummy
    direction 0.0717043 0.9409 -0.331007
    length 10.0032
    axis 0 0 0 xyz
  end
  begin
    id 7
    name Spine
    direction 2.30186e-007 1 4.58806e-011
    length 9.84055
    axis -0.001389 0.000121418 2.40972e-006 xyz
    dof rx ry rz
  end
  begin
    id 8
    name Spine1
    direction 0 0 0
    length 0
    axis -0.001389 0.000121451 1.30017e-006 xyz
    dof rx ry rz
  end
  begin
    id 9
    name HEadDummy
    direction -0.00347485 0.950688 -0.310128
    length 8.00997
    axis -0.001389 0.000121451 1.30017e-006 xyz
  end
  begin
    id 10
    name HEad
    direction -0.0222688 0.980941 0.193023
    length 5.12695
    axis -0.001389 0.000121451 1.30017e-006 xyz
    dof rx ry rz
  end
  begin
    id 11
    name LeftShoulder1Dummy
    direction 0.988871 0.146793 -0.0242004
    length 3.5792
    axis -0.001389 0.000121451 1.30017e-006 xyz
  end
  begin
    id 12
    name LeftShoulder1
    direction 0.993832 0.108932 0.020779
    length 4.16823
    axis -0.001389 0.000121451 1.30017e-006 xyz
    dof rx ry rz
  end
  begin
    id 13
    name LeftArm
    direction 1 3.44807e-006 -8.31404e-007
    length 9.91437
    axis -23.1894 0.134784 0.967509 xyz
    dof rx ry rz
  end
  begin
    id 14
    name LeftForeArm
    direction 1 3.44842e-006 -8.31581e-007
    length 9.08575
    axis -9.91835 -0.06569 -0.177793 xyz
    dof rx ry rz
  end
  begin
    id 15
    name LeftHand
    direction 0.992938 -0.0411636 0.11126
    length 5.32135
    axis -0.00960232 -0.00340091 0.185173 xyz
    dof rx ry rz
  end
  begin
    id 16
    name RightShoulderDummy
    direction -0.988871 0.146793 -0.0241962
    length 3.5792
    axis -0.001389 0.000121451 1.30017e-006 xyz
  end
  begin
    id 17
    name RightShoulder
    direction -0.993832 0.108933 0.0207785
    length 4.16823
    axis 0.215806 0.000203643 -0.0068026 xyz
    dof rx ry rz
  end
  begin
    id 18
    name RightArm
    direction -1 3.90912e-006 8.31284e-007
    length 9.91437
    axis -23.2009 -0.134239 -0.964101 xyz
    dof rx ry rz
  end
  begin
    id 19
    name RightForeArm
    direction -1 3.90882e-006 8.31502e-007
    length 9.08575
    axis -9.92322 0.0658061 0.178867 xyz
    dof rx ry rz
  end
  begin
    id 20
    name RightHand
    direction -0.992843 -0.0414603 0.112003
    length 5.28593
    axis -0.00960638 0.00330671 -0.185228 xyz
    dof rx ry rz
  end
  begin
    id 21
    name LeftUpLegDummy
    direction 1 -2.30186e-007 -8.31532e-007
    length 4.46685
    axis 0 0 0 xyz
  end
  begin
    id 22
    name LeftUpLeg
    direction -2.30187e-007 -1 6.00931e-010
    length 16.4045
    axis -3.48766 0.00143442 -0.000524262 xyz
    dof rx ry rz
  end
  begin
    id 23
    name LeftLeg
    direction -2.30187e-007 -1 1.6669e-009
    length 17.5097
    axis 3.68178 -0.00654042 -0.000285133 xyz
    dof rx ry rz
  end
  begin
    id 24
    name LeftFoot
    direction 8.31532e-007 -4.54478e-011 1
    length 6.49508
    axis 1.87233e-006 4.66016e-005 -8.6538e-006 xyz
    dof rx ry rz
  end
  begin
    id 25
    name LeftToes
    direction 0.00818058 -0.00485161 0.999955
    length 3.85048
    axis 1.06247e-005 4.65869e-005 -8.65513e-006 xyz
    dof rx ry rz
  end
:hierarchy
  begin
    root RightUpLegDummy SpineDummy LeftUpLegDummy
    RightUpLegDummy RightUpLeg
    RightUpLeg RightLeg
    RightLeg RightFoot
    RightFoot RightToes
    SpineDummy Spine
    Spine Spine1
    Spine1 HEadDummy LeftShoulder1Dummy RightShoulderDummy
    HEadDummy HEad
    LeftShoulder1Dummy LeftShoulder1
    LeftShoulder1 LeftArm
    LeftArm LeftForeArm
    LeftForeArm LeftHand
    RightShoulderDummy RightShoulder
    RightShoulder RightArm
    RightArm RightForeArm
    RightForeArm RightHand
    LeftUpLegDummy LeftUpLeg
    LeftUpLeg LeftLeg
    LeftLeg LeftFoot
    LeftFoot LeftToes
  end

:SAMPLES-PER-SECOND 30
:FULLY-SPECIFIED
:DEGREES
135
root  -16.1173 30.88 7.80591 -4.55209 -39.2936 -2.35916
RightUpLeg  -5.57089 1.14005 2.90515
RightLeg  45.7975 -3.13965 -2.86849
RightFoot  -20.554 0.18357 1.39
RightToes  -28.2465 -0.132034 -0.239596
Spine  6.03416 -3.67645 -3.14868
Spine1  9.19343 -6.68573 -7.63842
HEad  -30.7387 -29.9925 20.8598
LeftShoulder1  0 -2.42657e-020 -4.95415e-022
LeftArm  63.637 -79.6397 -144.893
LeftForeArm  2.34872 -36.3008 -7.42529
LeftHand  -0.0708016 1.97147 -4.46737
RightShoulder  0 2.42657e-020 1.07489e-018
RightArm  -160.885 63.8554 -71.4467
RightForeArm  66.5044 8.735 1.49417
RightHand  2.7823 16.5011 19.3926
LeftUpLeg  -6.49887 -3.36989 2.71655
LeftLeg  49.1952 2.56274 2.59918
LeftFoot  -21.0601 -0.266854 -1.43555
LeftToes  -17.0712 1.33192e-006 1.13262e-007
136
root  -16.5525 31.4243 7.67239 -3.77859 -37.4533 -2.23749
RightUpLeg  -3.50576 -0.489811 3.31088
RightLeg  40.6655 -3.33175 -2.5291
RightFoot  -18.349 0.134033 1.20747
RightToes  -27.9609 -0.130135 -0.237547
Spine  5.91317 -3.93653 -3.37656
Spine1  9.05702 -7.46353 -7.85187
HEad  -32.772 -30.6908 21.7847
LeftShoulder1  0 -2.42657e-020 -4.95415e-022
LeftArm  45.1412 -77.6099 -125.704
LeftForeArm  3.3899 -32.731 -6.49062
LeftHand  -0.0983503 2.15068 -5.58791
RightShoulder  0 2.42657e-020 1.07489e-018
RightArm  -147.874 69.0052 -60.3249
RightForeArm  59.8444 11.7614 2.05858
RightHand  2.96363 17.5534 19.4001
LeftUpLeg  -9.32788 -5.11859 3.34804
LeftLeg  51.6619 2.13632 2.36121
LeftFoot  -13.7892 -0.11212 -0.927229
LeftToes  -25.2627 1.33192e-006 1.13262e-007
137
root  -16.894 32.1362 7.54854 -3.06267 -36.9379 -1.74615
RightUpLeg  -2.12044 -0.698086 3.52278
RightLeg  35.8957 -3.75996 -2.38112
RightFoot  -14.293 0.0743872 0.970882
RightToes  -28.3591 -0.132786 -0.240401
Spine  5.5412 -3.75066 -3.69676
Spine1  8.4767 -7.37296 -8.06432
HEad  -33.7594 -31.1384 21.3992
LeftShoulder1  0 -2.42657e-020 -4.95415e-022
LeftArm  28.7407 -73.931 -109.426
LeftForeArm  5.70596 -30.4318 -5.9308
LeftHand  -0.0737808 1.75184 -5.1724
RightShoulder  0 2.42657e-020 1.07489e-018
RightArm  -141.302 73.0395 -49.5941
RightForeArm  52.4492 13.7461 2.44036
RightHand  2.93182 18.3312 18.4008
LeftUpLeg  -11.9493 -4.67737 3.59622
LeftLeg  52.7832 1.55014 1.78066
LeftFoot  -8.65334 -0.0450238 -0.595096
LeftToes  -18.0944 1.33192e-006 1.13262e-007
138
root  -17.137 32.8202 7.45582 -2.29248 -37.536 -0.711731
RightUpLeg  -2.1121 0.478439 3.2404
RightLeg  32.7527 -4.14014 -2.30931
RightFoot  -9.76868 0.0233483 0.650818
RightToes  -29.9178 -0.143355 -0.251394
Spine  5.00731 -3.42582 -4.27739
Spine1  7.70312 -6.95391 -8.71354
HEad  -34.587 -30.6312 21.2377
LeftShoulder1  0 -2.42657e-020 -4.95415e-022
LeftArm  17.646 -70.7595 -99.2043
LeftForeArm  10.3596 -27.9651 -5.36102
LeftHand  -0.0429007 1.23137 -4.33606
RightShoulder  0 2.42657e-020 1.07489e-018
RightArm  -142.475 76.8003 -43.1271
RightForeArm  49.6924 15.1836 2.71506
RightHand  3.08369 19.0478 18.6055
LeftUpLeg  -13.4038 -3.09582 2.9791
LeftLeg  49.2901 -1.97029 -2.01862
LeftFoot  -7.65202 0.00841612 0.125838
LeftToes  -23.0838 1.33192e-006 1.13262e-007
139
root  -17.3888 33.4279 7.4158 -1.44888 -37.7153 -0.101379
RightUpLeg  -1.77281 0.558557 3.01759
RightLeg  29.4934 -4.00664 -1.94306
RightFoot  -5.29126 -0.00700168 0.226053
RightToes  -32.1621 -0.159089 -0.266708
Spine  4.711 -3.26244 -4.82136
Spine1  7.37831 -6.84511 -9.31187
HEad  -35.1071 -30.2942 21.8664
LeftShoulder1  0 -2.42657e-020 -4.95415e-022
LeftArm  8.71578 -67.5775 -93.1345
LeftForeArm  15.4293 -25.8193 -4.88614
LeftHand  -0.0145594 0.520555 -3.52696
RightShoulder  0 2.42657e-020 1.07489e-018
RightArm  -129.498 80.7753 -28.3609
RightForeArm  45.4668 18.7517 3.40934
RightHand  2.67449 19.8691 15.5579
LeftUpLeg  -13.5464 -1.71331 2.18779
LeftLeg  41.7711 -6.47961 -5.06035
LeftFoot  -5.3208 0.0237707 0.511557
LeftToes  -31.5072 1.33192e-006 1.13262e-007
